<svg width="57" height="18" viewBox="0 0 57 18" fill="none" xmlns="http://www.w3.org/2000/svg">
<path d="M37.3333 0H42.8738L46.8948 10.4669H47.1052L51.1262 0H56.6667V18H52.4201V7.40884H52.2798L48.3208 17.8757H45.6558L41.7202 7.33425H41.5799V18H37.3333V0Z" fill="#3EA7F3"/>
<path d="M26.6667 6.30005V18H22V6.30005H26.6667Z" fill="white"/>
<path d="M26.6667 0V4.5H22V0H26.6667Z" fill="white"/>
<path d="M32.6667 6.30005V18H28V6.30005H32.6667Z" fill="white"/>
<path d="M32.6667 0V4.5H28V0H32.6667Z" fill="white"/>
<path d="M5.01081 18H0L5.86216 0H12.1622L18 18H13.0135L9.07297 5.06437H8.92703L5.01081 18Z" fill="white"/>
</svg>
